PathFileType	4	(X/Y/Z)	A:\Common\BMMB\PROJECTS\STRATO\DataSTRATO\DataSTRATO\0021~016 ID\0021~aa~ID 016\W8_STRATO_ID_16.trc
DataRate	CameraRate	NumFrames	NumMarkers	Units	OrigDataRate	OrigDataStartFrame	OrigNumFrames
250.00	250.00	20	18	mm	250.00	408	2481
Frame#	Time	r.should			l.should			c7			r.asis			l.asis			sacrum			r.bar1			l.bar1			r.knee1			l.knee1			r.bar2			r.mall			l.bar2			l.mall			r.met			r.heel			l.heel			l.met			
		X1	Y1	Z1	X2	Y2	Z2	X3	Y3	Z3	X4	Y4	Z4	X5	Y5	Z5	X6	Y6	Z6	X7	Y7	Z7	X8	Y8	Z8	X9	Y9	Z9	X10	Y10	Z10	X11	Y11	Z11	X12	Y12	Z12	X13	Y13	Z13	X14	Y14	Z14	X15	Y15	Z15	X16	Y16	Z16	X17	Y17	Z17	X18	Y18	Z18	

1571	6.284000	325.629950	1315.505981	167.053521	33.218443	1320.377469	120.005883	175.952330	1379.521608	220.564216	297.666401	866.927445	32.491434	55.844538	862.409830	51.268630	193.810865	932.176411	266.384870	390.926749	787.137628	102.317125	-10.076359	772.083282	141.624272	326.934367	456.406832	-1.871006	62.819935	442.277879	222.705975	316.626579	416.082680	-33.143111	302.312851	81.557184	-122.886814	62.691584	400.687873	240.527958	106.719169	63.223302	389.381438	302.356422	87.092459	-267.260075	242.549613	36.381431	-89.181185	146.415889	56.047350	458.053976	89.268176	95.338054	425.166339	
1572	6.288000	326.261461	1314.816356	162.437350	33.770449	1319.873571	115.763225	176.660240	1378.819704	216.224387	297.821045	866.043210	27.533211	55.971142	861.693084	47.148496	194.666237	931.549847	261.633873	391.145051	786.399245	97.391121	-9.802547	771.491766	137.525409	327.601254	455.183268	-4.931766	63.044086	441.954017	219.805047	317.054152	415.352106	-36.524948	302.851826	81.891403	-130.298138	62.892459	400.445104	237.882704	106.554795	63.894920	389.066458	301.836371	88.847786	-274.837017	243.422151	36.108751	-96.729957	146.204144	57.242420	457.803786	89.695965	94.841205	423.749983	
1573	6.292000	326.896459	1314.150095	157.858074	34.349438	1319.373965	111.586280	177.377895	1378.133774	211.884037	297.960728	865.218043	22.520864	56.132093	861.029625	42.835478	195.509627	930.924773	256.817520	391.347617	785.686016	92.431650	-9.448057	770.843327	133.441225	328.273565	454.026610	-8.080123	63.319072	441.625804	216.870621	317.499399	414.642602	-39.910089	303.334147	82.155250	-137.278646	63.104019	400.173187	235.092923	106.363406	64.626150	388.702273	301.171362	90.368547	-281.850874	244.263858	35.759412	-103.739530	145.974562	58.518510	457.558632	90.173181	94.284005	422.166526	
1574	6.296000	327.569693	1313.457489	153.237641	34.942821	1318.865418	107.433274	178.107783	1377.449989	207.498163	298.101991	864.456832	17.435612	56.298435	860.370100	38.508166	196.343809	930.304050	251.985103	391.520917	785.018861	87.397829	-9.061978	770.242453	129.220486	329.043597	452.416062	-10.781731	63.600995	441.284984	213.827953	318.176329	414.065987	-43.559313	303.761721	82.328215	-143.820524	63.301034	399.895161	232.263818	106.154695	65.515891	388.262898	300.419122	91.611542	-288.349986	245.084688	35.282344	-110.224724	145.724595	59.855260	457.301557	90.700736	93.665302	420.412809	
1575	6.300000	328.239620	1312.773943	148.565501	35.562143	1318.350911	103.300959	178.868890	1376.754880	203.069806	298.232228	863.634646	12.397055	56.425478	859.682262	34.194671	197.182223	929.697275	247.129202	391.710162	784.409642	82.318723	-8.680437	769.632339	125.078738	329.914689	450.111121	-12.805015	63.820139	440.936595	210.733324	319.087833	413.665265	-47.543898	304.153800	82.344599	-149.873048	63.519165	399.600416	229.321748	105.937303	66.609330	387.739986	299.535304	92.648029	-294.419050	245.841712	34.725957	-116.213009	145.443201	61.229575	457.004249	91.279544	92.983961	418.485701	
1576	6.304000	328.921616	1312.098742	143.867269	36.215592	1317.841291	99.099368	179.664358	1376.086116	198.649734	298.331738	862.849534	7.290581	56.567673	859.032810	29.743554	198.008001	929.102302	242.196351	391.917616	783.825815	77.206045	-8.306234	769.037426	120.871127	330.705822	448.824972	-15.916092	64.051710	440.620333	207.529679	319.703370	413.018286	-51.163647	304.470599	82.156561	-155.454576	63.732460	399.328887	226.340413	105.715648	67.736618	387.195975	298.637301	93.437210	-300.049394	246.471822	34.026280	-121.775642	145.134121	62.679641	456.714809	91.910518	92.238829	416.382015	
1577	6.308000	329.640716	1311.424732	139.175847	36.882516	1317.343950	94.857477	180.482522	1375.397682	194.244742	298.466265	862.102747	2.157495	56.735963	858.445227	25.162600	198.838145	928.517282	237.275004	392.182440	783.238471	72.093681	-8.006818	768.428743	116.627701	331.510782	448.085397	-19.695016	64.358555	440.284908	204.192162	320.262074	412.252575	-54.683983	304.704070	81.755370	-160.535455	63.961878	399.039984	223.250061	105.493091	68.674177	386.711031	297.740340	93.887076	-305.146158	247.046292	33.194818	-126.827791	144.803137	64.176530	456.383049	92.594571	91.428749	414.098680	
1578	6.312000	330.389857	1310.744762	134.466588	37.588332	1316.869020	90.583213	181.319341	1374.699831	189.867184	298.584759	861.364484	-3.002490	56.904715	857.836783	20.647477	199.669108	927.943468	232.309759	392.425060	782.635450	66.931821	-7.675943	767.791927	112.413153	332.277536	447.327346	-23.534223	64.637303	439.938664	200.838655	320.817173	411.378086	-58.117792	304.916978	81.133150	-165.107727	64.173341	398.750424	220.102683	105.278246	69.365129	386.305422	296.799004	93.976744	-309.708178	247.566730	32.251935	-131.327599	144.460291	65.717779	455.969989	93.332617	90.552576	411.632478	
1579	6.316000	331.135154	1310.076237	129.712597	38.289711	1316.403151	86.318724	182.185411	1373.992205	185.511202	298.687965	860.673964	-8.221456	57.038762	857.239306	16.067285	200.462848	927.380383	227.333158	392.703652	782.068253	61.748169	-7.320794	767.194331	108.061999	332.970381	446.723789	-27.590327	64.938672	439.542562	197.392330	321.176916	410.260975	-61.305273	305.134773	80.273472	-169.169486	64.377323	398.479253	216.883004	105.068013	70.254430	385.834813	295.894682	93.637906	-313.773453	248.042583	31.403754	-135.166258	144.099593	67.303233	455.511302	94.125569	89.609168	408.980340	
1580	6.320000	331.909001	1309.409022	124.927402	38.994141	1315.937757	82.044646	183.081716	1373.298883	181.112275	298.757076	859.979928	-13.407859	57.205215	856.640577	11.496383	201.259285	926.805854	222.346276	392.993450	781.507373	56.546044	-6.986801	766.650677	103.762694	333.586454	446.916163	-32.515876	65.233096	439.143836	193.819761	321.284115	408.902496	-64.199798	305.344939	79.211295	-172.729671	64.570382	398.194581	213.587105	104.786798	71.303315	385.357648	295.085311	92.845969	-317.355275	248.531297	30.906174	-138.216823	143.706158	68.923302	455.027491	94.974340	88.597365	406.139046	
1581	6.324000	332.692206	1308.732271	120.123632	39.726567	1315.472007	77.758417	184.008330	1372.610688	176.654160	298.811287	859.362960	-18.630434	57.347432	856.112897	6.768790	202.053949	926.251292	217.289150	393.330723	780.956924	51.343992	-6.579904	766.144514	99.274904	334.240496	446.242183	-36.583491	65.482281	438.732982	190.218255	321.681648	407.710195	-67.516163	305.586100	77.984422	-175.841704	64.769268	397.923440	210.294485	104.518093	72.369047	384.881049	294.286817	91.548108	-320.463508	249.120310	30.608961	-140.588552	143.275499	70.636109	454.520822	95.879842	87.516032	403.105497	
1582	6.328000	333.512723	1308.044434	115.306035	40.494960	1315.000653	73.487639	184.966475	1371.937990	172.224343	298.914790	858.831644	-23.911253	57.488531	855.559945	2.045658	202.823400	925.711870	212.190479	393.657207	780.398369	46.088733	-6.219401	765.650928	94.806053	334.848017	445.356190	-40.479921	65.738007	438.300252	186.589345	322.123885	406.524658	-70.987634	305.805862	76.625317	-178.477541	64.997233	397.645593	206.882924	104.256786	73.479369	384.350151	293.516725	89.669608	-323.065460	249.736995	30.080132	-142.299920	142.791942	72.416149	453.963190	96.842990	86.364008	399.876565	
1583	6.332000	334.360421	1307.381511	110.413238	41.256800	1314.539552	69.275297	185.950413	1371.273279	167.792320	299.000233	858.274698	-29.192217	57.657681	855.010152	-2.740392	203.576237	925.195694	207.133919	394.032121	779.838920	40.854789	-5.918114	765.166640	90.421475	335.397840	444.479853	-44.352025	66.014349	437.891871	182.842478	322.544366	405.328602	-74.520722	305.875748	75.060844	-180.670425	65.230265	397.404075	203.339219	103.898376	74.656740	383.592725	292.888850	87.197848	-325.241357	250.175953	29.498259	-143.256694	142.328247	74.262932	453.337103	97.864697	85.140146	396.449059	
1584	6.336000	335.215241	1306.729198	105.570123	42.054009	1314.123750	64.998403	186.954945	1370.629787	163.328946	299.076915	857.788801	-34.522243	57.828274	854.507804	-7.632514	204.313904	924.690425	202.058718	394.453228	779.313028	35.604164	-5.536539	764.717281	85.826389	335.917234	443.672150	-48.298374	66.310607	437.480241	179.070324	322.932184	404.116184	-78.086883	305.603713	73.330656	-182.555094	65.457016	397.144884	199.833497	103.686184	75.404406	383.122295	292.475939	83.905607	-327.133417	249.856696	29.368859	-144.050390	141.861290	76.196775	452.667177	98.945875	83.843306	392.819852	
1585	6.340000	336.078554	1306.090355	100.716375	42.895481	1313.723445	60.654048	187.987030	1370.013714	158.854693	299.201250	857.346475	-39.856769	57.999656	853.985667	-12.522576	205.055952	924.237847	196.995378	394.911557	778.817117	30.300606	-5.138865	764.247596	81.151314	336.371899	442.977011	-52.349869	66.570871	437.094808	175.257146	323.247403	402.900875	-81.675239	305.041313	71.599022	-184.343949	65.652251	396.874428	196.245059	103.283514	76.849595	382.304609	292.429119	79.477765	-328.899741	248.669073	29.709538	-145.149544	141.388491	78.212619	451.974571	100.087438	82.472332	388.985813	
1586	6.344000	336.973071	1305.463314	95.845424	43.718997	1313.335896	56.369610	189.047843	1369.421482	154.407874	299.281240	856.945395	-45.193311	58.213994	853.482723	-17.496755	205.813587	923.816144	191.958651	395.354301	778.338313	25.001243	-4.744281	763.795018	76.514654	336.696446	442.406595	-56.495953	66.884041	436.693013	171.389759	323.499233	401.707172	-85.244179	304.486603	70.183307	-186.189041	65.880410	396.626383	192.594364	102.735639	78.920580	381.112605	292.909533	74.104682	-330.613405	247.848362	30.309249	-146.344796	140.853256	80.299817	451.230228	101.290299	81.026070	384.943813	
1587	6.348000	337.892324	1304.852247	90.939894	44.548105	1312.980771	52.120946	190.121651	1368.870258	149.987146	299.381375	856.661439	-50.604783	58.460865	853.059709	-22.626057	206.549540	923.413336	187.005684	395.791292	777.937591	19.727202	-4.303365	763.369977	71.711183	336.869359	441.945970	-60.742021	67.237169	436.286449	167.393297	323.683798	400.611550	-88.771045	304.116696	69.459513	-188.230693	66.149920	396.351278	188.874066	102.205947	81.183761	379.739285	293.757468	68.863541	-332.530826	247.513652	31.025337	-147.305518	140.282094	82.499750	450.387210	102.555372	79.503387	380.690664	
1588	6.352000	338.812649	1304.285526	85.997120	45.382548	1312.648535	47.843210	191.225946	1368.384123	145.529971	299.472451	856.419563	-55.942260	58.729392	852.626204	-27.671173	207.239896	923.058033	182.085320	395.999104	777.397156	15.051253	-3.899761	762.927294	66.868015	336.904913	441.611350	-65.059930	67.614280	435.898393	163.380355	323.823601	399.722576	-92.277110	303.887933	69.280840	-190.409437	66.421866	396.121025	185.069174	101.726119	83.548084	378.223062	294.457048	65.107308	-334.730059	247.372150	31.681105	-148.321524	139.654100	84.830545	449.465930	103.882374	77.904932	376.226813	
1589	6.356000	339.722097	1303.724647	81.060424	46.219848	1312.365651	43.512970	192.356437	1367.953062	141.089484	299.584866	856.291711	-61.332684	59.085358	852.207005	-32.705039	207.920820	922.771811	177.155748	395.799726	776.705623	11.206222	-3.535022	762.484491	62.133729	336.838871	441.436380	-69.438696	68.045124	435.467869	159.377784	324.000090	399.065465	-95.705986	303.743660	69.313660	-192.568913	66.735253	395.901740	181.173712	101.294920	86.008161	376.563698	294.756770	62.849581	-336.951315	247.284472	32.308653	-149.575815	139.036655	87.257110	448.442072	105.266247	76.238625	371.566862	
1590	6.360000	340.656489	1303.210855	76.137871	47.031410	1312.193751	39.165907	193.508923	1367.553949	136.626035	299.727976	856.305182	-66.778928	59.461776	851.866782	-37.869334	208.577603	922.543168	172.225282	396.032751	776.761174	6.159343	-3.043706	762.098551	57.287596	336.771548	441.433579	-73.747337	68.500996	435.139269	155.224115	324.237645	398.649961	-99.095322	303.607702	69.309190	-194.607243	67.058697	395.699114	177.194625	100.911112	88.558614	374.761015	294.822037	61.082549	-338.945329	247.271568	32.919083	-150.859356	138.453737	89.784406	447.313845	106.700737	74.514173	366.729051	
